<svg xmlns="http://www.w3.org/2000/svg" viewBox="0 0 128 128"><rect width="128" height="128" rx="16" fill="#16A34A"/><circle cx="64" cy="52" r="22" fill="none" stroke="#fff" stroke-width="6"/><circle cx="64" cy="52" r="8" fill="#fff"/><g fill="#fff"><rect x="61" y="24" width="6" height="12" rx="2"/><rect x="61" y="68" width="6" height="12" rx="2"/><rect x="36" y="49" width="12" height="6" rx="2"/><rect x="80" y="49" width="12" height="6" rx="2"/><rect x="41" y="31" width="6" height="12" rx="2" transform="rotate(-45 44 37)"/><rect x="81" y="61" width="6" height="12" rx="2" transform="rotate(-45 84 67)"/><rect x="81" y="31" width="6" height="12" rx="2" transform="rotate(45 84 37)"/><rect x="41" y="61" width="6" height="12" rx="2" transform="rotate(45 44 67)"/></g><text x="64" y="100" text-anchor="middle" fill="#fff" font-size="14" font-family="system-ui" font-weight="700">Cogwheel</text></svg>